<svg width="65" height="63" fill="none" xmlns="http://www.w3.org/2000/svg"><path d="m53.388 11.682-4.132 2.953C38.108-.16 32.071-8.055 12.823 18.326l13.522 8.121c1.922-6.35 3.54-9.585 7.512-14.765l4.507 8.86-4.507 3.321c5.452.517 8.372.585 13.146 0 3.236-3.848 4.729-6.403 6.385-12.181ZM43.88 61l-.624-5.044c18.302-2.766 28.11-4.32 14.115-33.834L43.8 30.157c4.66 4.717 6.73 7.683 9.386 13.648l-9.926-.252-.77-5.551c-3.051 4.554-4.501 7.092-6.263 11.573 1.838 4.682 3.37 7.214 7.655 11.425ZM2 27.922l4.709 1.9C.25 47.19-3.147 56.532 29.417 58.586l-.438-15.782c-6.38 1.794-9.973 2.169-16.471 1.603l5.033-8.57 5.221 2.017c-2.498-4.88-4.012-7.381-7.072-11.096-4.98-.662-7.935-.547-13.69 1.163Z" stroke="#344F10"/></svg>